<svg width="1080" height="250" viewBox="0 0 1080 250" fill="none" xmlns="http://www.w3.org/2000/svg">
<g clip-path="url(#clip0_2_32)">
<path d="M340.927 240.381C340.927 240.381 255.892 99.5444 160.859 35.7205C187.973 59.6203 273.071 131.593 333.976 243.972C339.919 246.64 343.805 249.727 343.805 249.727L340.927 240.36V240.381Z" fill="#dbe7dc"/>
<path d="M64.021 11.2957C90.7351 18.0792 109.889 36.3086 125.493 58.1923C146.053 63.7997 168.126 66.6139 176.947 76.7367C160.607 69.9532 145.276 68.9241 133.305 69.8692C148.174 93.391 160.04 119.328 173.166 139.448C202.611 151.124 235.163 145.643 254.128 163.452C243.312 158.034 221.764 162.843 192.761 162.822C193.643 163.578 194.546 164.334 195.449 165.007C237.221 196.11 304.238 209.215 304.238 209.215C238.754 112.902 152.69 6.78032 64 11.3377L64.021 11.2957Z" fill="#dbe7dc"/>
<path d="M292.876 143.354C295.249 135.142 295.669 125.292 294.955 115.086C277.419 64.9547 253.225 33.9353 219.706 16.903C228.548 30.8061 237.473 48.4264 237.557 63.0436C232.769 44.4781 215.212 23.7705 200.49 8.9854C165.312 -2.52348 121.229 -2.20848 65.9112 5.58312C210.381 1.4668 314.381 192.141 314.381 192.141C309.95 167.653 304.805 145.958 298.819 126.783C297.538 132.937 295.606 138.628 292.855 143.333L292.876 143.354Z" fill="#dbe7dc"/>
<path d="M146.452 151.628C146.452 151.628 102.727 205.183 108.334 208.333C118.478 213.226 151.745 199.575 202.149 199.575C252.552 199.575 310.664 223.727 310.664 223.727C310.664 223.727 242.01 203.523 202.149 205.519C153.152 207.976 105.898 221.627 85.2326 227.57C90.126 212.428 146.452 151.628 146.452 151.628Z" fill="#dbe7dc"/>
<path d="M98.5265 219.548L120.578 250C120.578 250 217.711 212.722 310.118 250C221.26 206.506 131.814 239.331 123.371 238.806C114.929 238.281 98.5265 219.548 98.5265 219.548Z" fill="#dbe7dc"/>
<path d="M109.384 228.998C109.384 228.998 200.742 189.095 309.257 232.842C217.207 192.581 139.837 213.94 109.384 228.998Z" fill="#dbe7dc"/>
<path d="M112.178 236.685C112.178 236.685 199.691 195.732 308.186 239.478C216.136 199.218 142.63 221.627 112.178 236.685Z" fill="#dbe7dc"/>
<path d="M403.357 121C403.357 123.837 402.642 126.291 401.213 128.36C399.805 130.429 397.799 132.029 395.197 133.16C392.594 134.291 389.543 134.856 386.045 134.856C383.527 134.856 381.341 134.589 379.485 134.056C377.629 133.523 375.965 132.755 374.493 131.752L374.813 129.416C375.687 130.013 376.53 130.504 377.341 130.888C378.173 131.272 379.015 131.549 379.869 131.72C380.743 131.891 381.65 131.976 382.589 131.976C384.274 131.976 385.799 131.56 387.165 130.728C388.551 129.875 389.65 128.616 390.461 126.952C391.293 125.288 391.709 123.219 391.709 120.744C391.709 117.821 391.229 115.336 390.269 113.288C389.309 111.219 387.997 109.629 386.333 108.52C384.69 107.411 382.802 106.856 380.669 106.856H378.909V144.424C378.909 144.829 379.026 145.171 379.261 145.448C379.495 145.725 379.879 145.917 380.413 146.024L382.749 146.408C383.175 146.493 383.485 146.643 383.677 146.856C383.869 147.069 383.965 147.379 383.965 147.784C383.965 148.147 383.837 148.445 383.581 148.68C383.325 148.893 382.919 149 382.365 149H364.125C363.57 149 363.165 148.893 362.909 148.68C362.653 148.445 362.525 148.136 362.525 147.752C362.525 147.112 362.887 146.664 363.613 146.408L365.437 145.992C365.949 145.864 366.322 145.672 366.557 145.416C366.791 145.16 366.909 144.829 366.909 144.424V108.84C366.909 108.413 366.791 108.072 366.557 107.816C366.322 107.539 365.959 107.336 365.469 107.208L363.581 106.76C362.877 106.525 362.525 106.088 362.525 105.448C362.525 105.043 362.653 104.733 362.909 104.52C363.165 104.307 363.57 104.2 364.125 104.2H380.893C385.565 104.2 389.575 104.915 392.925 106.344C396.274 107.773 398.845 109.757 400.637 112.296C402.45 114.813 403.357 117.715 403.357 121ZM449.381 119.88C449.381 121.928 448.911 123.795 447.973 125.48C447.034 127.144 445.701 128.541 443.973 129.672C442.245 130.781 440.175 131.56 437.765 132.008C436.954 132.136 436.197 132.285 435.493 132.456C434.789 132.605 434.074 132.733 433.349 132.84C432.645 132.947 431.855 133 430.981 133C429.466 133 428.122 132.904 426.949 132.712C425.775 132.52 424.719 132.243 423.781 131.88C422.863 131.496 422.031 131.048 421.285 130.536L421.477 128.168C422.095 128.637 422.757 129.021 423.461 129.32C424.186 129.619 424.954 129.843 425.765 129.992C426.597 130.141 427.514 130.216 428.517 130.216C431.183 130.216 433.285 129.405 434.821 127.784C436.378 126.163 437.157 123.656 437.157 120.264C437.157 117.64 436.666 115.304 435.685 113.256C434.725 111.208 433.402 109.608 431.717 108.456C430.031 107.283 428.111 106.696 425.957 106.696H423.909V144.232C423.909 144.723 424.015 145.107 424.229 145.384C424.442 145.64 424.783 145.853 425.253 146.024L427.045 146.408C427.471 146.579 427.759 146.771 427.909 146.984C428.079 147.176 428.165 147.443 428.165 147.784C428.165 148.595 427.631 149 426.565 149H409.125C408.57 149 408.165 148.893 407.909 148.68C407.653 148.445 407.525 148.147 407.525 147.784C407.525 147.123 407.887 146.664 408.613 146.408L410.405 146.024C410.917 145.875 411.29 145.661 411.525 145.384C411.781 145.107 411.909 144.723 411.909 144.232V108.776C411.909 108.349 411.781 108.019 411.525 107.784C411.29 107.528 410.917 107.325 410.405 107.176L408.613 106.792C407.887 106.536 407.525 106.077 407.525 105.416C407.525 105.032 407.653 104.733 407.909 104.52C408.165 104.307 408.57 104.2 409.125 104.2H426.245C431.13 104.2 435.301 104.861 438.757 106.184C442.213 107.485 444.847 109.309 446.661 111.656C448.474 114.003 449.381 116.744 449.381 119.88ZM429.253 131.816L440.741 130.504L448.965 144.296C449.327 144.915 449.701 145.384 450.085 145.704C450.469 146.003 450.949 146.248 451.525 146.44C451.951 146.589 452.25 146.771 452.421 146.984C452.613 147.176 452.709 147.443 452.709 147.784C452.709 148.147 452.57 148.445 452.293 148.68C452.037 148.893 451.631 149 451.077 149H435.653C434.629 149 434.117 148.595 434.117 147.784C434.117 147.549 434.17 147.357 434.277 147.208C434.405 147.059 434.597 146.909 434.853 146.76L435.685 146.504C436.154 146.269 436.431 146.003 436.517 145.704C436.623 145.405 436.506 144.957 436.165 144.36L429.253 131.816ZM468.762 124.712H477.21C478.746 124.712 479.855 124.392 480.538 123.752C481.242 123.112 481.775 121.885 482.138 120.072C482.245 119.624 482.415 119.304 482.65 119.112C482.885 118.92 483.151 118.824 483.45 118.824C484.133 118.803 484.57 119.187 484.762 119.976L487.642 130.568C487.77 131.037 487.77 131.411 487.642 131.688C487.535 131.965 487.301 132.157 486.938 132.264C486.597 132.392 486.277 132.413 485.978 132.328C485.679 132.243 485.413 132.029 485.178 131.688C484.346 130.515 483.599 129.619 482.938 129C482.277 128.381 481.562 127.955 480.794 127.72C480.047 127.485 479.119 127.368 478.01 127.368H468.762V124.712ZM455.962 105.416C455.962 105.032 456.09 104.733 456.346 104.52C456.602 104.307 457.007 104.2 457.562 104.2H483.45C484.175 104.2 484.794 104.115 485.306 103.944C485.818 103.752 486.287 103.571 486.714 103.4C487.141 103.229 487.578 103.144 488.026 103.144C488.538 103.144 488.933 103.304 489.21 103.624C489.487 103.944 489.733 104.477 489.946 105.224L492.698 115.496C492.847 115.965 492.847 116.349 492.698 116.648C492.57 116.947 492.314 117.16 491.93 117.288C491.503 117.437 491.119 117.437 490.778 117.288C490.437 117.117 490.149 116.819 489.914 116.392C488.719 114.408 487.631 112.797 486.65 111.56C485.69 110.323 484.762 109.363 483.866 108.68C482.991 107.997 482.085 107.528 481.146 107.272C480.229 107.016 479.226 106.888 478.138 106.888H472.346V143.528C472.346 144.467 472.591 145.171 473.082 145.64C473.573 146.088 474.298 146.312 475.258 146.312H478.874C480.325 146.312 481.669 146.013 482.906 145.416C484.143 144.819 485.413 143.699 486.714 142.056C488.015 140.392 489.477 137.971 491.098 134.792C491.311 134.365 491.567 134.077 491.866 133.928C492.165 133.779 492.506 133.747 492.89 133.832C493.317 133.917 493.626 134.12 493.818 134.44C494.01 134.76 494.031 135.165 493.882 135.656L490.778 147.944C490.565 148.669 490.319 149.192 490.042 149.512C489.765 149.853 489.338 150.024 488.762 150.024C488.357 150.024 487.941 149.939 487.514 149.768C487.109 149.597 486.639 149.427 486.106 149.256C485.573 149.085 484.933 149 484.186 149H457.562C457.007 149 456.602 148.893 456.346 148.68C456.09 148.445 455.962 148.147 455.962 147.784C455.962 147.123 456.335 146.664 457.082 146.408L458.842 146.024C459.354 145.875 459.727 145.683 459.962 145.448C460.218 145.192 460.346 144.851 460.346 144.424V108.776C460.346 108.349 460.218 108.019 459.962 107.784C459.727 107.528 459.354 107.325 458.842 107.176L457.082 106.792C456.335 106.536 455.962 106.077 455.962 105.416ZM476.986 96.424H472.026L482.234 101.48C483.045 101.928 483.674 101.971 484.122 101.608C484.293 101.459 484.389 101.245 484.41 100.968C484.431 100.669 484.293 100.36 483.994 100.04L476.954 92.424C476.549 91.9973 476.165 91.656 475.802 91.4C475.461 91.144 475.034 91.016 474.522 91.016C473.989 91.016 473.551 91.144 473.21 91.4C472.869 91.656 472.485 91.9973 472.058 92.424L465.05 100.04C464.73 100.36 464.581 100.669 464.602 100.968C464.645 101.245 464.751 101.459 464.922 101.608C465.37 101.971 465.999 101.928 466.81 101.48L476.986 96.424ZM504.847 104.2H529.647C530.393 104.2 531.033 104.115 531.567 103.944C532.1 103.773 532.569 103.613 532.975 103.464C533.38 103.315 533.753 103.24 534.095 103.24C534.671 103.24 535.108 103.389 535.407 103.688C535.705 103.965 535.94 104.477 536.111 105.224L538.159 116.776C538.287 117.288 538.255 117.704 538.063 118.024C537.892 118.344 537.604 118.547 537.199 118.632C536.793 118.717 536.441 118.685 536.143 118.536C535.844 118.387 535.577 118.099 535.343 117.672C533.999 114.728 532.815 112.499 531.791 110.984C530.767 109.448 529.796 108.403 528.879 107.848C527.961 107.293 526.98 107.016 525.935 107.016H523.279V144.424C523.279 144.851 523.407 145.192 523.663 145.448C523.919 145.683 524.292 145.875 524.783 146.024L526.543 146.408C527.289 146.664 527.663 147.123 527.663 147.784C527.663 148.595 527.129 149 526.063 149H508.463C507.929 149 507.535 148.893 507.279 148.68C507.023 148.445 506.895 148.147 506.895 147.784C506.895 147.123 507.257 146.664 507.983 146.408L509.775 146.024C510.287 145.875 510.66 145.683 510.895 145.448C511.151 145.192 511.279 144.851 511.279 144.424V107.016H508.591C507.609 107.016 506.66 107.315 505.743 107.912C504.825 108.488 503.844 109.544 502.799 111.08C501.775 112.595 500.569 114.792 499.183 117.672C498.969 118.099 498.703 118.387 498.383 118.536C498.084 118.685 497.743 118.717 497.359 118.632C496.953 118.547 496.665 118.344 496.495 118.024C496.324 117.704 496.281 117.288 496.367 116.776L498.447 105.224C498.617 104.477 498.852 103.965 499.151 103.688C499.449 103.389 499.876 103.24 500.431 103.24C500.793 103.24 501.167 103.315 501.551 103.464C501.956 103.613 502.425 103.773 502.959 103.944C503.492 104.115 504.121 104.2 504.847 104.2ZM555.012 124.712H563.46C564.996 124.712 566.105 124.392 566.788 123.752C567.492 123.112 568.025 121.885 568.388 120.072C568.495 119.624 568.665 119.304 568.9 119.112C569.135 118.92 569.401 118.824 569.7 118.824C570.383 118.803 570.82 119.187 571.012 119.976L573.892 130.568C574.02 131.037 574.02 131.411 573.892 131.688C573.785 131.965 573.551 132.157 573.188 132.264C572.847 132.392 572.527 132.413 572.228 132.328C571.929 132.243 571.663 132.029 571.428 131.688C570.596 130.515 569.849 129.619 569.188 129C568.527 128.381 567.812 127.955 567.044 127.72C566.297 127.485 565.369 127.368 564.26 127.368H555.012V124.712ZM542.212 105.416C542.212 105.032 542.34 104.733 542.596 104.52C542.852 104.307 543.257 104.2 543.812 104.2H569.7C570.425 104.2 571.044 104.115 571.556 103.944C572.068 103.752 572.537 103.571 572.964 103.4C573.391 103.229 573.828 103.144 574.276 103.144C574.788 103.144 575.183 103.304 575.46 103.624C575.737 103.944 575.983 104.477 576.196 105.224L578.948 115.496C579.097 115.965 579.097 116.349 578.948 116.648C578.82 116.947 578.564 117.16 578.18 117.288C577.753 117.437 577.369 117.437 577.028 117.288C576.687 117.117 576.399 116.819 576.164 116.392C574.969 114.408 573.881 112.797 572.9 111.56C571.94 110.323 571.012 109.363 570.116 108.68C569.241 107.997 568.335 107.528 567.396 107.272C566.479 107.016 565.476 106.888 564.388 106.888H558.596V143.528C558.596 144.467 558.841 145.171 559.332 145.64C559.823 146.088 560.548 146.312 561.508 146.312H565.124C566.575 146.312 567.919 146.013 569.156 145.416C570.393 144.819 571.663 143.699 572.964 142.056C574.265 140.392 575.727 137.971 577.348 134.792C577.561 134.365 577.817 134.077 578.116 133.928C578.415 133.779 578.756 133.747 579.14 133.832C579.567 133.917 579.876 134.12 580.068 134.44C580.26 134.76 580.281 135.165 580.132 135.656L577.028 147.944C576.815 148.669 576.569 149.192 576.292 149.512C576.015 149.853 575.588 150.024 575.012 150.024C574.607 150.024 574.191 149.939 573.764 149.768C573.359 149.597 572.889 149.427 572.356 149.256C571.823 149.085 571.183 149 570.436 149H543.812C543.257 149 542.852 148.893 542.596 148.68C542.34 148.445 542.212 148.147 542.212 147.784C542.212 147.123 542.585 146.664 543.332 146.408L545.092 146.024C545.604 145.875 545.977 145.683 546.212 145.448C546.468 145.192 546.596 144.851 546.596 144.424V108.776C546.596 108.349 546.468 108.019 546.212 107.784C545.977 107.528 545.604 107.325 545.092 107.176L543.332 106.792C542.585 106.536 542.212 106.077 542.212 105.416ZM600.345 128.488C601.518 128.488 601.891 129.096 601.465 130.312L600.761 133.48C600.547 134.077 600.302 134.483 600.025 134.696C599.747 134.888 599.363 134.984 598.873 134.984H584.441C583.267 134.984 582.894 134.376 583.321 133.16L584.057 129.96C584.249 129.384 584.483 129 584.761 128.808C585.038 128.595 585.422 128.488 585.913 128.488H600.345ZM634.436 133.256L631.684 134.312L641.732 106.92C642.116 105.875 642.553 105.16 643.044 104.776C643.535 104.392 644.207 104.2 645.06 104.2H656.58C657.113 104.2 657.508 104.307 657.764 104.52C658.041 104.733 658.18 105.032 658.18 105.416C658.18 105.757 658.084 106.045 657.892 106.28C657.721 106.493 657.455 106.664 657.092 106.792L655.364 107.208C654.767 107.357 654.351 107.613 654.116 107.976C653.903 108.339 653.817 108.872 653.86 109.576L656.292 143.912C656.335 144.616 656.463 145.107 656.676 145.384C656.889 145.64 657.273 145.853 657.828 146.024L659.524 146.408C659.865 146.515 660.121 146.675 660.292 146.888C660.463 147.101 660.548 147.379 660.548 147.72C660.548 148.083 660.409 148.392 660.132 148.648C659.876 148.883 659.481 149 658.948 149H641.636C641.081 149 640.665 148.893 640.388 148.68C640.132 148.445 640.004 148.147 640.004 147.784C640.004 147.443 640.089 147.165 640.26 146.952C640.431 146.717 640.729 146.536 641.156 146.408L642.82 146.024C643.46 145.832 643.887 145.587 644.1 145.288C644.335 144.989 644.431 144.531 644.388 143.912L641.828 109.512L644.292 109.096L631.364 144.904C631.001 145.885 630.628 146.515 630.244 146.792C629.881 147.069 629.465 147.208 628.996 147.208C628.633 147.208 628.303 147.155 628.004 147.048C627.705 146.941 627.428 146.717 627.172 146.376C626.916 146.035 626.639 145.512 626.34 144.808L612.74 110.056L615.076 109.128L612.452 142.216C612.367 143.219 612.623 144.019 613.22 144.616C613.839 145.213 614.639 145.715 615.62 146.12L616.996 146.568C617.252 146.675 617.455 146.824 617.604 147.016C617.753 147.187 617.828 147.421 617.828 147.72C617.828 148.104 617.7 148.413 617.444 148.648C617.188 148.883 616.793 149 616.26 149H605.604C605.071 149 604.676 148.893 604.42 148.68C604.164 148.445 604.036 148.147 604.036 147.784C604.036 147.4 604.143 147.112 604.356 146.92C604.591 146.707 604.879 146.525 605.22 146.376L606.308 146.024C607.14 145.725 607.844 145.267 608.42 144.648C609.017 144.029 609.359 143.208 609.444 142.184L611.908 111.432C612.015 110.109 611.951 109.117 611.716 108.456C611.503 107.795 611.065 107.379 610.404 107.208L608.772 106.824C608.367 106.696 608.068 106.525 607.876 106.312C607.684 106.077 607.588 105.789 607.588 105.448C607.588 104.616 608.132 104.2 609.22 104.2H620.804C621.593 104.2 622.223 104.371 622.692 104.712C623.183 105.053 623.631 105.725 624.036 106.728L634.436 133.256ZM686.445 103.208C689.986 103.208 693.175 103.773 696.013 104.904C698.871 106.035 701.314 107.645 703.341 109.736C705.367 111.805 706.914 114.28 707.981 117.16C709.069 120.019 709.613 123.197 709.613 126.696C709.613 130.067 709.079 133.181 708.013 136.04C706.946 138.877 705.41 141.341 703.405 143.432C701.421 145.523 699.031 147.144 696.237 148.296C693.463 149.448 690.359 150.024 686.925 150.024C683.383 150.024 680.194 149.459 677.357 148.328C674.519 147.197 672.087 145.587 670.061 143.496C668.034 141.405 666.477 138.909 665.389 136.008C664.322 133.107 663.789 129.885 663.789 126.344C663.789 123.016 664.322 119.944 665.389 117.128C666.477 114.312 668.013 111.869 669.997 109.8C672.002 107.709 674.391 106.088 677.165 104.936C679.938 103.784 683.031 103.208 686.445 103.208ZM697.357 134.504C697.357 131.56 697.111 128.691 696.621 125.896C696.13 123.101 695.447 120.509 694.573 118.12C693.719 115.709 692.717 113.597 691.565 111.784C690.434 109.971 689.218 108.552 687.917 107.528C686.615 106.504 685.282 105.992 683.917 105.992C682.295 105.992 680.898 106.483 679.725 107.464C678.573 108.424 677.677 109.832 677.037 111.688C676.418 113.544 676.109 115.827 676.109 118.536C676.109 121.501 676.343 124.392 676.813 127.208C677.303 130.024 677.986 132.648 678.861 135.08C679.735 137.491 680.738 139.613 681.869 141.448C682.999 143.261 684.215 144.68 685.517 145.704C686.818 146.728 688.151 147.24 689.517 147.24C691.181 147.24 692.599 146.76 693.773 145.8C694.946 144.84 695.831 143.421 696.429 141.544C697.047 139.645 697.357 137.299 697.357 134.504ZM730.721 144.424C730.721 144.851 730.849 145.192 731.105 145.448C731.361 145.683 731.734 145.875 732.225 146.024L733.985 146.408C734.732 146.664 735.105 147.112 735.105 147.752C735.105 148.136 734.977 148.445 734.721 148.68C734.465 148.893 734.06 149 733.505 149H715.937C715.382 149 714.977 148.893 714.721 148.68C714.465 148.445 714.337 148.136 714.337 147.752C714.337 147.112 714.7 146.664 715.425 146.408L717.217 146.024C717.729 145.875 718.102 145.683 718.337 145.448C718.593 145.192 718.721 144.851 718.721 144.424V108.776C718.721 108.349 718.593 108.019 718.337 107.784C718.102 107.528 717.729 107.325 717.217 107.176L715.425 106.792C714.7 106.557 714.337 106.099 714.337 105.416C714.337 105.032 714.465 104.733 714.721 104.52C714.977 104.307 715.382 104.2 715.937 104.2H733.505C734.06 104.2 734.465 104.307 734.721 104.52C734.977 104.733 735.105 105.032 735.105 105.416C735.105 106.099 734.732 106.557 733.985 106.792L732.225 107.176C731.734 107.325 731.361 107.528 731.105 107.784C730.849 108.019 730.721 108.349 730.721 108.776V144.424ZM759.784 104.2H784.584C785.331 104.2 785.971 104.115 786.504 103.944C787.037 103.773 787.507 103.613 787.912 103.464C788.317 103.315 788.691 103.24 789.032 103.24C789.608 103.24 790.045 103.389 790.344 103.688C790.643 103.965 790.877 104.477 791.048 105.224L793.096 116.776C793.224 117.288 793.192 117.704 793 118.024C792.829 118.344 792.541 118.547 792.136 118.632C791.731 118.717 791.379 118.685 791.08 118.536C790.781 118.387 790.515 118.099 790.28 117.672C788.936 114.728 787.752 112.499 786.728 110.984C785.704 109.448 784.733 108.403 783.816 107.848C782.899 107.293 781.917 107.016 780.872 107.016H778.216V144.424C778.216 144.851 778.344 145.192 778.6 145.448C778.856 145.683 779.229 145.875 779.72 146.024L781.48 146.408C782.227 146.664 782.6 147.123 782.6 147.784C782.6 148.595 782.067 149 781 149H763.4C762.867 149 762.472 148.893 762.216 148.68C761.96 148.445 761.832 148.147 761.832 147.784C761.832 147.123 762.195 146.664 762.92 146.408L764.712 146.024C765.224 145.875 765.597 145.683 765.832 145.448C766.088 145.192 766.216 144.851 766.216 144.424V107.016H763.528C762.547 107.016 761.597 107.315 760.68 107.912C759.763 108.488 758.781 109.544 757.736 111.08C756.712 112.595 755.507 114.792 754.12 117.672C753.907 118.099 753.64 118.387 753.32 118.536C753.021 118.685 752.68 118.717 752.296 118.632C751.891 118.547 751.603 118.344 751.432 118.024C751.261 117.704 751.219 117.288 751.304 116.776L753.384 105.224C753.555 104.477 753.789 103.965 754.088 103.688C754.387 103.389 754.813 103.24 755.368 103.24C755.731 103.24 756.104 103.315 756.488 103.464C756.893 103.613 757.363 103.773 757.896 103.944C758.429 104.115 759.059 104.2 759.784 104.2ZM802.139 130.888H819.835L819.931 133.704H801.979L802.139 130.888ZM805.915 147.784C805.915 148.147 805.787 148.445 805.531 148.68C805.296 148.893 804.902 149 804.347 149H793.787C793.254 149 792.859 148.893 792.603 148.68C792.347 148.445 792.219 148.147 792.219 147.784C792.219 147.485 792.294 147.251 792.443 147.08C792.614 146.888 792.859 146.696 793.179 146.504L794.075 146.152C794.8 145.811 795.43 145.299 795.963 144.616C796.496 143.912 796.998 142.792 797.467 141.256L806.875 110.632C807.195 109.565 807.27 108.765 807.099 108.232C806.928 107.677 806.491 107.24 805.787 106.92C805.296 106.664 804.944 106.429 804.731 106.216C804.539 106.003 804.443 105.736 804.443 105.416C804.443 105.032 804.571 104.733 804.827 104.52C805.104 104.307 805.51 104.2 806.043 104.2H822.939C823.472 104.2 823.867 104.307 824.123 104.52C824.4 104.733 824.539 105.032 824.539 105.416C824.539 105.757 824.432 106.045 824.219 106.28C824.006 106.493 823.686 106.685 823.259 106.856C822.747 107.027 822.438 107.283 822.331 107.624C822.246 107.944 822.32 108.477 822.555 109.224L833.435 143.176C833.734 144.136 834.054 144.851 834.395 145.32C834.758 145.789 835.216 146.12 835.771 146.312C836.262 146.525 836.592 146.739 836.763 146.952C836.934 147.165 837.019 147.443 837.019 147.784C837.019 148.147 836.891 148.445 836.635 148.68C836.379 148.893 835.974 149 835.419 149H819.643C819.088 149 818.683 148.893 818.427 148.68C818.171 148.445 818.043 148.147 818.043 147.784C818.043 147.464 818.128 147.208 818.299 147.016C818.491 146.824 818.779 146.653 819.163 146.504L820.539 146.152C821.094 145.96 821.371 145.683 821.371 145.32C821.392 144.957 821.286 144.381 821.051 143.592L810.107 108.744L811.195 107.432L800.955 140.872C800.656 141.853 800.56 142.675 800.667 143.336C800.795 143.997 801.115 144.552 801.627 145C802.139 145.448 802.843 145.843 803.739 146.184L804.859 146.536C805.2 146.685 805.456 146.856 805.627 147.048C805.819 147.219 805.915 147.464 805.915 147.784ZM893.669 121C893.669 123.837 892.954 126.291 891.525 128.36C890.117 130.429 888.112 132.029 885.509 133.16C882.906 134.291 879.856 134.856 876.357 134.856C873.84 134.856 871.653 134.589 869.797 134.056C867.941 133.523 866.277 132.755 864.805 131.752L865.125 129.416C866 130.013 866.842 130.504 867.653 130.888C868.485 131.272 869.328 131.549 870.181 131.72C871.056 131.891 871.962 131.976 872.901 131.976C874.586 131.976 876.112 131.56 877.477 130.728C878.864 129.875 879.962 128.616 880.773 126.952C881.605 125.288 882.021 123.219 882.021 120.744C882.021 117.821 881.541 115.336 880.581 113.288C879.621 111.219 878.309 109.629 876.645 108.52C875.002 107.411 873.114 106.856 870.981 106.856H869.221V144.424C869.221 144.829 869.338 145.171 869.573 145.448C869.808 145.725 870.192 145.917 870.725 146.024L873.061 146.408C873.488 146.493 873.797 146.643 873.989 146.856C874.181 147.069 874.277 147.379 874.277 147.784C874.277 148.147 874.149 148.445 873.893 148.68C873.637 148.893 873.232 149 872.677 149H854.437C853.882 149 853.477 148.893 853.221 148.68C852.965 148.445 852.837 148.136 852.837 147.752C852.837 147.112 853.2 146.664 853.925 146.408L855.749 145.992C856.261 145.864 856.634 145.672 856.869 145.416C857.104 145.16 857.221 144.829 857.221 144.424V108.84C857.221 108.413 857.104 108.072 856.869 107.816C856.634 107.539 856.272 107.336 855.781 107.208L853.893 106.76C853.189 106.525 852.837 106.088 852.837 105.448C852.837 105.043 852.965 104.733 853.221 104.52C853.477 104.307 853.882 104.2 854.437 104.2H871.205C875.877 104.2 879.888 104.915 883.237 106.344C886.586 107.773 889.157 109.757 890.949 112.296C892.762 114.813 893.669 117.715 893.669 121ZM917.485 106.792L915.725 107.176C915.234 107.325 914.861 107.528 914.605 107.784C914.349 108.019 914.221 108.349 914.221 108.776V144.328C914.221 145.053 914.413 145.565 914.797 145.864C915.181 146.163 915.736 146.312 916.461 146.312H920.365C921.474 146.312 922.488 146.131 923.405 145.768C924.344 145.384 925.24 144.712 926.093 143.752C926.946 142.771 927.832 141.373 928.749 139.56L931.373 134.248C931.586 133.8 931.842 133.501 932.141 133.352C932.461 133.203 932.824 133.192 933.229 133.32C933.656 133.427 933.944 133.629 934.093 133.928C934.264 134.227 934.285 134.632 934.157 135.144L931.117 147.944C930.904 148.669 930.648 149.192 930.349 149.512C930.072 149.853 929.656 150.024 929.101 150.024C928.76 150.024 928.376 149.939 927.949 149.768C927.522 149.597 927.032 149.427 926.477 149.256C925.944 149.085 925.293 149 924.525 149H899.437C898.882 149 898.477 148.893 898.221 148.68C897.965 148.445 897.837 148.147 897.837 147.784C897.837 147.123 898.2 146.664 898.925 146.408L900.717 146.024C901.229 145.875 901.602 145.683 901.837 145.448C902.093 145.192 902.221 144.851 902.221 144.424V108.776C902.221 108.349 902.093 108.019 901.837 107.784C901.602 107.528 901.229 107.325 900.717 107.176L898.925 106.792C898.2 106.536 897.837 106.077 897.837 105.416C897.837 105.032 897.965 104.733 898.221 104.52C898.477 104.307 898.882 104.2 899.437 104.2H917.005C917.56 104.2 917.965 104.307 918.221 104.52C918.477 104.733 918.605 105.032 918.605 105.416C918.605 106.077 918.232 106.536 917.485 106.792ZM972.658 129.448L971.474 111.496C971.41 110.28 971.122 109.331 970.61 108.648C970.098 107.944 969.298 107.453 968.21 107.176L966.93 106.856C966.396 106.707 966.023 106.525 965.81 106.312C965.618 106.099 965.522 105.811 965.522 105.448C965.522 105.064 965.65 104.765 965.906 104.552C966.162 104.317 966.524 104.2 966.994 104.2H978.866C979.335 104.2 979.698 104.317 979.954 104.552C980.231 104.765 980.37 105.064 980.37 105.448C980.37 105.811 980.252 106.099 980.018 106.312C979.783 106.525 979.42 106.707 978.93 106.856L977.714 107.176C976.519 107.517 975.655 108.061 975.122 108.808C974.61 109.555 974.396 110.493 974.482 111.624L975.698 129.256C975.783 130.387 975.847 131.496 975.89 132.584C975.954 133.672 975.996 134.803 976.018 135.976C976.039 138.621 975.463 141.011 974.29 143.144C973.138 145.256 971.324 146.931 968.85 148.168C966.396 149.405 963.207 150.024 959.282 150.024C955.1 150.024 951.623 149.448 948.85 148.296C946.098 147.144 944.039 145.544 942.674 143.496C941.33 141.427 940.658 139.016 940.658 136.264C940.658 135.752 940.679 135.112 940.722 134.344C940.764 133.576 940.818 132.701 940.882 131.72C940.946 130.717 941.01 129.661 941.074 128.552L942.322 108.84C942.343 108.349 942.226 107.987 941.97 107.752C941.714 107.496 941.255 107.304 940.594 107.176L938.898 106.856C937.916 106.643 937.426 106.173 937.426 105.448C937.426 105.064 937.554 104.765 937.81 104.552C938.087 104.317 938.471 104.2 938.962 104.2H957.586C958.076 104.2 958.45 104.317 958.706 104.552C958.983 104.765 959.122 105.064 959.122 105.448C959.122 105.811 959.004 106.109 958.77 106.344C958.535 106.557 958.162 106.717 957.65 106.824L955.858 107.176C955.324 107.283 954.93 107.464 954.674 107.72C954.439 107.955 954.3 108.317 954.258 108.808L953.042 128.52C952.956 129.992 952.903 131.357 952.882 132.616C952.86 133.853 952.85 134.909 952.85 135.784C952.828 139.667 953.639 142.483 955.282 144.232C956.924 145.981 959.154 146.856 961.97 146.856C964.188 146.856 966.119 146.429 967.762 145.576C969.404 144.701 970.674 143.464 971.57 141.864C972.487 140.243 972.935 138.312 972.914 136.072C972.914 134.536 972.882 133.267 972.818 132.264C972.775 131.261 972.722 130.323 972.658 129.448ZM1012.31 133.256L1009.56 134.312L1019.61 106.92C1019.99 105.875 1020.43 105.16 1020.92 104.776C1021.41 104.392 1022.08 104.2 1022.94 104.2H1034.46C1034.99 104.2 1035.38 104.307 1035.64 104.52C1035.92 104.733 1036.06 105.032 1036.06 105.416C1036.06 105.757 1035.96 106.045 1035.77 106.28C1035.6 106.493 1035.33 106.664 1034.97 106.792L1033.24 107.208C1032.64 107.357 1032.23 107.613 1031.99 107.976C1031.78 108.339 1031.69 108.872 1031.74 109.576L1034.17 143.912C1034.21 144.616 1034.34 145.107 1034.55 145.384C1034.76 145.64 1035.15 145.853 1035.7 146.024L1037.4 146.408C1037.74 146.515 1038 146.675 1038.17 146.888C1038.34 147.101 1038.42 147.379 1038.42 147.72C1038.42 148.083 1038.28 148.392 1038.01 148.648C1037.75 148.883 1037.36 149 1036.82 149H1019.51C1018.96 149 1018.54 148.893 1018.26 148.68C1018.01 148.445 1017.88 148.147 1017.88 147.784C1017.88 147.443 1017.96 147.165 1018.14 146.952C1018.31 146.717 1018.6 146.536 1019.03 146.408L1020.7 146.024C1021.34 145.832 1021.76 145.587 1021.98 145.288C1022.21 144.989 1022.31 144.531 1022.26 143.912L1019.7 109.512L1022.17 109.096L1009.24 144.904C1008.88 145.885 1008.5 146.515 1008.12 146.792C1007.76 147.069 1007.34 147.208 1006.87 147.208C1006.51 147.208 1006.18 147.155 1005.88 147.048C1005.58 146.941 1005.3 146.717 1005.05 146.376C1004.79 146.035 1004.51 145.512 1004.22 144.808L990.615 110.056L992.951 109.128L990.327 142.216C990.242 143.219 990.498 144.019 991.095 144.616C991.714 145.213 992.514 145.715 993.495 146.12L994.871 146.568C995.127 146.675 995.33 146.824 995.479 147.016C995.628 147.187 995.703 147.421 995.703 147.72C995.703 148.104 995.575 148.413 995.319 148.648C995.063 148.883 994.668 149 994.135 149H983.479C982.946 149 982.551 148.893 982.295 148.68C982.039 148.445 981.911 148.147 981.911 147.784C981.911 147.4 982.018 147.112 982.231 146.92C982.466 146.707 982.754 146.525 983.095 146.376L984.183 146.024C985.015 145.725 985.719 145.267 986.295 144.648C986.892 144.029 987.234 143.208 987.319 142.184L989.783 111.432C989.89 110.109 989.826 109.117 989.591 108.456C989.378 107.795 988.94 107.379 988.279 107.208L986.647 106.824C986.242 106.696 985.943 106.525 985.751 106.312C985.559 106.077 985.463 105.789 985.463 105.448C985.463 104.616 986.007 104.2 987.095 104.2H998.679C999.468 104.2 1000.1 104.371 1000.57 104.712C1001.06 105.053 1001.51 105.725 1001.91 106.728L1012.31 133.256ZM1055.2 124.712H1063.65C1065.18 124.712 1066.29 124.392 1066.98 123.752C1067.68 123.112 1068.21 121.885 1068.58 120.072C1068.68 119.624 1068.85 119.304 1069.09 119.112C1069.32 118.92 1069.59 118.824 1069.89 118.824C1070.57 118.803 1071.01 119.187 1071.2 119.976L1074.08 130.568C1074.21 131.037 1074.21 131.411 1074.08 131.688C1073.97 131.965 1073.74 132.157 1073.38 132.264C1073.03 132.392 1072.71 132.413 1072.42 132.328C1072.12 132.243 1071.85 132.029 1071.62 131.688C1070.78 130.515 1070.04 129.619 1069.38 129C1068.71 128.381 1068 127.955 1067.23 127.72C1066.48 127.485 1065.56 127.368 1064.45 127.368H1055.2V124.712ZM1042.4 105.416C1042.4 105.032 1042.53 104.733 1042.78 104.52C1043.04 104.307 1043.44 104.2 1044 104.2H1069.89C1070.61 104.2 1071.23 104.115 1071.74 103.944C1072.26 103.752 1072.72 103.571 1073.15 103.4C1073.58 103.229 1074.02 103.144 1074.46 103.144C1074.98 103.144 1075.37 103.304 1075.65 103.624C1075.92 103.944 1076.17 104.477 1076.38 105.224L1079.14 115.496C1079.28 115.965 1079.28 116.349 1079.14 116.648C1079.01 116.947 1078.75 117.16 1078.37 117.288C1077.94 117.437 1077.56 117.437 1077.22 117.288C1076.87 117.117 1076.59 116.819 1076.35 116.392C1075.16 114.408 1074.07 112.797 1073.09 111.56C1072.13 110.323 1071.2 109.363 1070.3 108.68C1069.43 107.997 1068.52 107.528 1067.58 107.272C1066.67 107.016 1065.66 106.888 1064.58 106.888H1058.78V143.528C1058.78 144.467 1059.03 145.171 1059.52 145.64C1060.01 146.088 1060.74 146.312 1061.7 146.312H1065.31C1066.76 146.312 1068.11 146.013 1069.34 145.416C1070.58 144.819 1071.85 143.699 1073.15 142.056C1074.45 140.392 1075.91 137.971 1077.54 134.792C1077.75 134.365 1078 134.077 1078.3 133.928C1078.6 133.779 1078.94 133.747 1079.33 133.832C1079.75 133.917 1080.06 134.12 1080.26 134.44C1080.45 134.76 1080.47 135.165 1080.32 135.656L1077.22 147.944C1077 148.669 1076.76 149.192 1076.48 149.512C1076.2 149.853 1075.78 150.024 1075.2 150.024C1074.79 150.024 1074.38 149.939 1073.95 149.768C1073.55 149.597 1073.08 149.427 1072.54 149.256C1072.01 149.085 1071.37 149 1070.62 149H1044C1043.44 149 1043.04 148.893 1042.78 148.68C1042.53 148.445 1042.4 148.147 1042.4 147.784C1042.4 147.123 1042.77 146.664 1043.52 146.408L1045.28 146.024C1045.79 145.875 1046.16 145.683 1046.4 145.448C1046.66 145.192 1046.78 144.851 1046.78 144.424V108.776C1046.78 108.349 1046.66 108.019 1046.4 107.784C1046.16 107.528 1045.79 107.325 1045.28 107.176L1043.52 106.792C1042.77 106.536 1042.4 106.077 1042.4 105.416Z" fill="#dbe7dc"/>
</g>
<defs>
<clipPath id="clip0_2_32">
<rect width="1080" height="250" fill="white"/>
</clipPath>
</defs>
</svg>
